<?xml version="1.0" encoding="UTF-8" standalone="no"?>
<!-- Created with Inkscape (http://www.inkscape.org/) -->

<svg
   width="300"
   height="300"
   viewBox="0 0 79.375002 79.375"
   version="1.1"
   id="svg1"
   xml:space="preserve"
   inkscape:version="1.3.2 (091e20e, 2023-11-25, custom)"
   sodipodi:docname="Logo_300x300.svg"
   xmlns:inkscape="http://www.inkscape.org/namespaces/inkscape"
   xmlns:sodipodi="http://sodipodi.sourceforge.net/DTD/sodipodi-0.dtd"
   xmlns="http://www.w3.org/2000/svg"
   xmlns:svg="http://www.w3.org/2000/svg"><sodipodi:namedview
     id="namedview1"
     pagecolor="#ffffff"
     bordercolor="#000000"
     borderopacity="0.25"
     inkscape:showpageshadow="2"
     inkscape:pageopacity="0.0"
     inkscape:pagecheckerboard="0"
     inkscape:deskcolor="#d1d1d1"
     inkscape:document-units="mm"
     inkscape:zoom="1.0771772"
     inkscape:cx="174.99442"
     inkscape:cy="313.31893"
     inkscape:window-width="1920"
     inkscape:window-height="1111"
     inkscape:window-x="-9"
     inkscape:window-y="-9"
     inkscape:window-maximized="1"
     inkscape:current-layer="layer-MC4"
     inkscape:export-bgcolor="#ffffffff"><inkscape:page
       x="0"
       y="0"
       width="79.375"
       height="79.375"
       id="page1"
       margin="0"
       bleed="0"
       inkscape:export-filename="iQMedixLogo_300x300px_weißerHintergrund.png"
       inkscape:export-xdpi="96"
       inkscape:export-ydpi="96" /><inkscape:page
       x="220"
       y="0"
       width="122.03218"
       height="44.999985"
       id="page2"
       margin="3.17188 2.7546666 3.964 1.8912801"
       bleed="0" /></sodipodi:namedview><defs
     id="defs1"><clipPath
       clipPathUnits="userSpaceOnUse"
       id="clipPath2"><path
         d="M 0,127.559 H 345.918 V 0 H 0 Z"
         transform="translate(-1.4185,-118.4346)"
         id="path2" /></clipPath><clipPath
       clipPathUnits="userSpaceOnUse"
       id="clipPath4"><path
         d="M 0,127.559 H 345.918 V 0 H 0 Z"
         transform="translate(-2.6514001,-65.624002)"
         id="path4" /></clipPath><clipPath
       clipPathUnits="userSpaceOnUse"
       id="clipPath6"><path
         d="M 0,127.559 H 345.918 V 0 H 0 Z"
         transform="translate(-274.3228,-118.4346)"
         id="path6" /></clipPath><clipPath
       clipPathUnits="userSpaceOnUse"
       id="clipPath8"><path
         d="M 0,127.559 H 345.918 V 0 H 0 Z"
         transform="translate(-275.55031,-65.624002)"
         id="path8" /></clipPath><clipPath
       clipPathUnits="userSpaceOnUse"
       id="clipPath10"><path
         d="M 0,127.559 H 345.918 V 0 H 0 Z"
         transform="translate(-71.255402,-91.532203)"
         id="path10" /></clipPath><clipPath
       clipPathUnits="userSpaceOnUse"
       id="clipPath12"><path
         d="M 0,127.559 H 345.918 V 0 H 0 Z"
         transform="translate(-240.77001,-68.728501)"
         id="path12" /></clipPath><clipPath
       clipPathUnits="userSpaceOnUse"
       id="clipPath14"><path
         d="M 0,127.559 H 345.918 V 0 H 0 Z"
         transform="translate(-185.3101,-99.208003)"
         id="path14" /></clipPath><clipPath
       clipPathUnits="userSpaceOnUse"
       id="clipPath16"><path
         d="M 0,127.559 H 345.918 V 0 H 0 Z"
         transform="translate(-142.0459,-122.75)"
         id="path16" /></clipPath><clipPath
       clipPathUnits="userSpaceOnUse"
       id="clipPath18"><path
         d="M 0,127.559 H 345.918 V 0 H 0 Z"
         transform="translate(-318.29441,-94.126003)"
         id="path18" /></clipPath><clipPath
       clipPathUnits="userSpaceOnUse"
       id="clipPath20"><path
         d="M 0,127.559 H 345.918 V 0 H 0 Z"
         transform="translate(-311.23391,-87.062502)"
         id="path20" /></clipPath><clipPath
       clipPathUnits="userSpaceOnUse"
       id="clipPath22"><path
         d="M 0,127.559 H 345.918 V 0 H 0 Z"
         transform="translate(-59.268101,-8.1406027)"
         id="path22" /></clipPath><clipPath
       clipPathUnits="userSpaceOnUse"
       id="clipPath24"><path
         d="M 0,127.559 H 345.918 V 0 H 0 Z"
         transform="translate(-77.558102,-24.100603)"
         id="path24" /></clipPath><clipPath
       clipPathUnits="userSpaceOnUse"
       id="clipPath26"><path
         d="M 0,127.559 H 345.918 V 0 H 0 Z"
         transform="translate(-100.6899,-8.5049002)"
         id="path26" /></clipPath><clipPath
       clipPathUnits="userSpaceOnUse"
       id="clipPath28"><path
         d="M 0,127.559 H 345.918 V 0 H 0 Z"
         transform="translate(-111.6958,-23.802703)"
         id="path28" /></clipPath><clipPath
       clipPathUnits="userSpaceOnUse"
       id="clipPath30"><path
         d="M 0,127.559 H 345.918 V 0 H 0 Z"
         transform="translate(-129.82281,-23.305701)"
         id="path30" /></clipPath><clipPath
       clipPathUnits="userSpaceOnUse"
       id="clipPath32"><path
         d="M 0,127.559 H 345.918 V 0 H 0 Z"
         transform="translate(-140.33151,-24.100603)"
         id="path32" /></clipPath><clipPath
       clipPathUnits="userSpaceOnUse"
       id="clipPath34"><path
         d="M 0,127.559 H 345.918 V 0 H 0 Z"
         transform="translate(-152.7261,-8.5049002)"
         id="path34" /></clipPath><clipPath
       clipPathUnits="userSpaceOnUse"
       id="clipPath36"><path
         d="M 0,127.559 H 345.918 V 0 H 0 Z"
         transform="translate(-174.5649,-2.3789001)"
         id="path36" /></clipPath><clipPath
       clipPathUnits="userSpaceOnUse"
       id="clipPath38"><path
         d="M 0,127.559 H 345.918 V 0 H 0 Z"
         transform="translate(-193.1919,-24.100603)"
         id="path38" /></clipPath><clipPath
       clipPathUnits="userSpaceOnUse"
       id="clipPath40"><path
         d="M 0,127.559 H 345.918 V 0 H 0 Z"
         transform="translate(-216.22411,-8.5049002)"
         id="path40" /></clipPath><clipPath
       clipPathUnits="userSpaceOnUse"
       id="clipPath42"><path
         d="M 0,127.559 H 345.918 V 0 H 0 Z"
         transform="translate(-233.1919,-23.305701)"
         id="path42" /></clipPath><clipPath
       clipPathUnits="userSpaceOnUse"
       id="clipPath44"><path
         d="M 0,127.559 H 345.918 V 0 H 0 Z"
         transform="translate(-257.18511,-22.345701)"
         id="path44" /></clipPath><clipPath
       clipPathUnits="userSpaceOnUse"
       id="clipPath46"><path
         d="M 0,127.559 H 345.918 V 0 H 0 Z"
         transform="translate(-272.5249,-16.286098)"
         id="path46" /></clipPath><clipPath
       clipPathUnits="userSpaceOnUse"
       id="clipPath48"><path
         d="M 0,127.559 H 345.918 V 0 H 0 Z"
         transform="translate(-291.41461,-8.5049002)"
         id="path48" /></clipPath><clipPath
       clipPathUnits="userSpaceOnUse"
       id="clipPath50"><path
         d="M 0,127.559 H 345.918 V 0 H 0 Z"
         transform="translate(-309.97311,-22.345701)"
         id="path50" /></clipPath><clipPath
       clipPathUnits="userSpaceOnUse"
       id="clipPath52"><path
         d="M 0,127.559 H 345.918 V 0 H 0 Z"
         transform="translate(-321.56791,-24.100603)"
         id="path52" /></clipPath><clipPath
       clipPathUnits="userSpaceOnUse"
       id="clipPath54"><path
         d="M 0,127.559 H 345.918 V 0 H 0 Z"
         transform="translate(-342.21441,-23.305701)"
         id="path54" /></clipPath><clipPath
       clipPathUnits="userSpaceOnUse"
       id="clipPath56"><path
         d="M 0,127.559 H 345.918 V 0 H 0 Z"
         transform="translate(-311.23391,-87.062502)"
         id="path56" /></clipPath></defs><g
     inkscape:label="Ebene 1"
     inkscape:groupmode="layer"
     id="layer1" /><g
     id="layer-MC0"
     inkscape:groupmode="layer"
     inkscape:label="Magenta"
     transform="matrix(0.26458333,0,0,0.26458335,220.00001,0)" /><g
     id="layer-MC1"
     inkscape:groupmode="layer"
     inkscape:label="Ebene 1"
     transform="matrix(0.26458333,0,0,0.26458335,220.00001,0)" /><g
     id="layer-MC2"
     inkscape:groupmode="layer"
     inkscape:label="h"
     transform="matrix(0.26458333,0,0,0.26458335,220.00001,0)" /><g
     id="layer-MC3"
     inkscape:groupmode="layer"
     inkscape:label="Adresse"
     transform="matrix(0.26458333,0,0,0.26458335,220.00001,0)" /><g
     id="layer-MC4"
     inkscape:groupmode="layer"
     inkscape:label="hi"
     transform="matrix(0.26458333,0,0,0.26458335,220.00001,0)"><g
       id="g2"
       transform="matrix(4.4704912,0,0,4.4704912,1854.7221,-451.40191)"><path
         id="path17"
         d="M 0,0 0.009,-0.006 C 1.198,-1.196 2.332,-2.34 3.43,-3.457 11.668,5.718 16.018,15.167 10.747,27.804 10.553,20.985 4.552,12.294 -3.53,3.647 -2.392,2.429 -1.211,1.211 0,0"
         style="fill:#313394;fill-opacity:1;fill-rule:nonzero;stroke:none"
         transform="matrix(0.76943575,0,0,-0.76943575,-569.42067,126.4216)"
         clip-path="url(#clipPath18)" /><path
         id="path19"
         d="m 0,0 -0.012,0.009 c -1.174,1.174 -2.293,2.346 -3.351,3.523 -8.28,-9.2 -12.669,-18.663 -7.382,-31.335 0.192,6.848 6.248,15.583 14.383,24.265 C 2.375,-2.334 1.153,-1.154 0,0"
         style="fill:#313394;fill-opacity:1;fill-rule:nonzero;stroke:none"
         transform="matrix(0.76943575,0,0,-0.76943575,-574.85328,131.85651)"
         clip-path="url(#clipPath20)" /><path
         id="path55"
         d="M 0,0 -0.012,0.009 C -10.364,10.361 -16.709,20.572 -10.745,34.867 -10.529,27.088 -2.746,16.87 7.061,7.063 L 7.069,7.058 C 29.368,-15.241 35.322,-24.147 31.577,-41.809 28.809,-24.881 11.273,-11.279 0,0"
         style="fill:#ec008c;fill-opacity:1;fill-rule:nonzero;stroke:none"
         transform="matrix(0.76943575,0,0,-0.76943575,-574.85328,131.85651)"
         clip-path="url(#clipPath56)" /></g></g></svg>
